<svg width="130" height="90" viewBox="0 0 130 90" fill="none" xmlns="http://www.w3.org/2000/svg">
<g clip-path="url(#clip0_1274_686)">
<path d="M130.008 48.7607C130.013 45.7651 129.228 42.819 127.731 40.2073C126.234 37.5956 124.074 35.4067 121.461 33.8524C121.489 33.4568 121.521 33.0611 121.521 32.6298C121.527 28.2726 119.87 24.0708 116.876 20.8497C113.882 17.6285 109.767 15.6208 105.339 15.2209C104.781 11.0087 102.677 7.13994 99.4187 4.33841C96.1608 1.53687 91.9729 -0.00543937 87.6385 3.40264e-05H75.0979C70.7773 -0.00832346 66.601 1.52314 63.3474 4.30898C60.0937 7.09482 57.9848 10.945 57.4136 15.1418H50.9859C46.4921 15.1301 42.1602 16.7852 38.8604 19.7745C35.5606 22.7637 33.5371 26.8659 33.1966 31.2569H17.854C13.4974 31.2222 9.27833 32.7504 5.99213 35.5535C2.70593 38.3566 0.579639 42.2409 0.0140817 46.4742C-0.551476 50.7075 0.482775 54.9973 2.92186 58.5349C5.36095 62.0725 9.03638 64.6135 13.2553 65.679C12.1158 68.3427 11.6647 71.2408 11.9421 74.1163C12.2194 76.9918 13.2167 79.7557 14.8453 82.163C16.4739 84.5703 18.6836 86.5465 21.2784 87.9163C23.8732 89.2862 26.7729 90.0074 29.7203 90.0159H98.8587C101.779 90.0121 104.653 89.3069 107.231 87.9622C109.809 86.6175 112.01 84.6741 113.644 82.3022C115.278 79.9303 116.293 77.2022 116.601 74.3567C116.91 71.5111 116.501 68.6349 115.413 65.9797C119.518 65.2385 123.227 63.1089 125.895 59.9623C128.562 56.8156 130.018 52.8514 130.008 48.7607ZM76.8704 7.71138C84.1379 4.467 92.6854 9.39688 92.0192 18.2279C91.353 27.059 77.3186 26.3903 73.705 25.2864C66.2154 22.9956 65.3594 12.8549 76.8704 7.71138ZM35.9825 72.967L21.948 74.4903L20.0423 51.2455L12.6133 51.8587L11.8623 40.0365L39.9715 38.082L40.88 49.8528L34.0768 50.3434L35.9825 72.967ZM48.4988 20.5307C52.3304 18.0222 57.4459 20.7285 57.672 26.4655C57.8981 32.2025 50.029 32.5744 47.9376 32.072C43.5811 31.0235 42.4183 24.5307 48.4907 20.5307H48.4988ZM45.7048 36.8871L59.0811 35.6408L60.0582 55.1427L46.5486 57.5839L45.7048 36.8871ZM97.1751 65.8966C96.6174 68.7955 95.4545 71.5501 93.7593 73.9878C92.0201 76.4225 89.7727 78.467 87.1661 79.986C84.2806 81.6493 81.0922 82.7459 77.7788 83.2145C76.2274 83.4592 74.6587 83.5836 73.0872 83.5864C71.5095 83.5899 69.9348 83.4495 68.3835 83.167C65.4497 82.6779 62.6621 81.5605 60.2195 79.8945C57.7768 78.2285 55.7393 76.055 54.2522 73.5289C52.5662 70.6598 51.4561 67.501 50.9818 64.223L50.6346 62.0825L63.9584 60.0172L64.3016 62.1577C65.1697 67.5505 68.7429 70.7672 73.8867 70.7672C74.5197 70.7681 75.1517 70.7178 75.7762 70.6168C77.3042 70.4174 78.7743 69.9138 80.0964 69.1371C81.167 68.4903 82.0696 67.6085 82.7329 66.5613C83.3985 65.4864 83.8276 64.287 83.9926 63.04C84.1891 61.5537 84.1605 60.0472 83.9078 58.5691L81.2875 43.0356L65.7551 45.275L64.3258 32.0087H93.832L97.2356 56.5394C97.77 59.6385 97.7467 62.8054 97.167 65.8966H97.1751ZM114.335 61.2398H104.079L101.253 36.3688H114.335V61.2398ZM114.516 29.0808C113.495 34.0423 105.581 32.6892 103.615 31.8069C99.5209 29.9868 99.7793 24.1667 106.683 22.0539C111.032 20.7166 115.53 24.1113 114.508 29.0808H114.516Z" fill="white"/>
</g>
<defs>
<clipPath id="clip0_1274_686">
<rect width="130" height="90" fill="white"/>
</clipPath>
</defs>
</svg>
