<?xml version="1.0" encoding="utf-8"?>

<svg viewBox="0 0 163 50" xmlns="http://www.w3.org/2000/svg" xmlns:xlink="http://www.w3.org/1999/xlink"><style>:root>svg{display:none}:root>svg:target{display:block}</style>
    
    <svg id="lk-icon" width="25" height="36" viewBox="0 0 25 36" fill="none" xmlns="http://www.w3.org/2000/svg">
    <path fill-rule="evenodd" clip-rule="evenodd" d="M10.1999 0.799805C11.3044 0.799805 12.2 1.62815 12.2 2.64997V6.81651C12.3662 6.8054 12.533 6.7998 12.7004 6.7998C12.8676 6.80011 13.0342 6.806 13.2 6.81735V2.65017C13.2 1.62835 14.0959 0.8 15.1992 0.8C16.3041 0.8 17.2 1.62835 17.2 2.65017V8.30625C17.4811 8.51735 17.7487 8.7491 18.0003 9.0005C19.4057 10.4063 20.1968 12.3118 20.1999 14.2998C20.1999 15.7832 19.7607 17.2333 18.9362 18.4665C18.1118 19.6999 16.9404 20.6613 15.57 21.2289C14.1997 21.7965 12.6924 21.9451 11.2377 21.6557C9.78297 21.3662 8.44604 20.6519 7.39718 19.6032C6.34833 18.5543 5.63369 17.2179 5.34402 15.763C5.05435 14.3081 5.20397 12.8001 5.77057 11.4297C6.28647 10.1854 7.12643 9.1052 8.19995 8.30003V2.64997C8.19995 1.62815 9.09547 0.799805 10.1999 0.799805ZM17.2398 23.7998C21.0848 23.7998 24.2 26.4862 24.2 29.7997V36.7998H0.199951V29.7997C0.199951 26.4862 3.31662 23.7998 7.16006 23.7998H17.2398Z" fill="currentColor"/>
    </svg>

    <svg id="vk" width="29" height="26" viewBox="0 0 31 18" fill="none" xmlns="http://www.w3.org/2000/svg">
    <path fill-rule="evenodd" clip-rule="evenodd" d="M14.9169 17.8883H16.6202C16.9197 17.8417 17.2019 17.7122 17.4378 17.5132C17.6038 17.2746 17.6933 16.9868 17.6932 16.6914C17.6932 16.6914 17.6932 14.1905 18.7663 13.7975C19.8393 13.4045 21.253 16.227 22.7348 17.3703C23.2932 17.8342 24.0018 18.052 24.7106 17.9776H28.6792C28.6792 17.9776 30.7742 17.8705 29.7693 16.1913C29.0017 14.8228 28.0032 13.6122 26.8226 12.6185C24.3359 10.2069 24.6766 10.5999 27.6913 6.38402C29.4967 3.84736 30.2462 2.29321 30.0248 1.59652C29.8033 0.899831 28.5429 1.02488 28.5429 1.02488H24.0975C23.8915 1.0074 23.685 1.05072 23.5013 1.14992C23.3048 1.27666 23.1501 1.46377 23.0585 1.68584C22.5719 2.94628 22.0028 4.1699 21.3552 5.34792C19.3454 8.92069 18.5619 9.08146 18.2212 8.92069C17.4888 8.4205 17.6762 6.86635 17.6762 5.77665C17.6762 2.3468 18.1531 0.899831 16.7054 0.542555C16.0219 0.392338 15.3257 0.314538 14.6274 0.310327C13.4116 0.173305 12.1821 0.270165 10.9995 0.596147C10.4715 0.864105 10.0968 1.45361 10.3352 1.45361C10.8365 1.5011 11.3006 1.75089 11.6297 2.1503C11.9289 2.80822 12.0804 3.52933 12.0725 4.25823C12.0725 4.25823 12.328 8.31332 11.4423 8.8135C10.8462 9.17078 10.0286 8.47409 8.24022 5.24074C7.64944 4.11828 7.12056 2.96118 6.6562 1.77516C6.56988 1.57521 6.44182 1.39817 6.28148 1.25711C5.98039 1.08152 5.63735 1.00088 5.2936 1.02488H1.32503C1.32503 1.02488 0.694832 1.02488 0.47341 1.34643C0.251988 1.66798 0.47341 2.11457 0.47341 2.11457C0.47341 2.11457 3.8799 10.2605 7.55892 14.3513C8.47945 15.4528 9.60979 16.3397 10.8771 16.9551C12.1444 17.5704 13.5206 17.9005 14.9169 17.924V17.8883Z" fill="currentColor"/>
    </svg>

    <svg id="tg" width="29" height="26" viewBox="0 0 26 24" fill="none" xmlns="http://www.w3.org/2000/svg">
    <path d="M0.326913 10.8485C0.528694 10.4133 1.02201 10.1972 1.42557 10.0291C8.74409 6.98123 16.0731 3.96304 23.4001 0.939899C23.5364 0.883392 23.6766 0.834654 23.8188 0.798631C24.6279 0.593085 25.2358 1.05079 25.2496 1.95067C25.2574 2.46913 25.1552 2.99676 25.0543 3.50957C23.8574 9.58763 22.6513 15.6643 21.4452 21.7409C21.4046 21.9458 21.3502 22.1506 21.2801 22.3456C20.9748 23.1925 20.4238 23.4503 19.6442 23.095C19.4077 22.9869 19.1863 22.828 18.978 22.6641C17.1875 21.2564 15.4009 19.8423 13.5724 18.3978C13.0739 18.9099 12.5819 19.415 12.0899 19.92C11.6057 20.4173 11.1393 20.9378 10.6289 21.4012C10.4926 21.5248 10.3321 21.618 10.1494 21.7148C9.9181 21.837 9.65014 21.6442 9.66652 21.3666C9.72549 20.3897 9.77659 19.523 9.83162 18.6571C9.8873 17.7805 9.92923 16.9018 10.0196 16.0288C10.0452 15.7787 10.1625 15.4806 10.3308 15.3161C13.6216 12.1086 16.9267 8.91802 20.226 5.72112C20.4697 5.4852 20.6918 5.22386 20.9742 4.92084C20.4874 4.66232 20.1841 4.86998 19.886 5.07129C17.0669 6.97135 14.2499 8.87282 11.4321 10.775C9.89975 11.8098 8.36739 12.8446 6.79965 13.9034C4.848 13.2429 2.87539 12.5861 0.913259 11.8967C0.695099 11.8204 0.427148 11.6975 0.322982 11.4573C0.224711 11.2299 0.224711 11.0724 0.328878 10.8477L0.326913 10.8485Z" fill="currentColor"/>
    </svg>

    <svg id="youtube" width="29" height="26" viewBox="0 0 26 19" fill="none" xmlns="http://www.w3.org/2000/svg">
    <path d="M20.7764 0.25H5.22723C3.93149 0.294658 2.70679 0.838925 1.82177 1.76342C0.936759 2.68791 0.463684 3.91715 0.506316 5.18151V13.9829C0.473327 14.616 0.569799 15.2491 0.790112 15.8455C1.01042 16.4418 1.35017 16.9894 1.78956 17.4564C2.22895 17.9233 2.75918 18.3003 3.34938 18.5653C3.93957 18.8303 4.57792 18.9781 5.22723 19H20.7764C22.0722 18.9553 23.2969 18.4111 24.1819 17.4866C25.0669 16.5621 25.54 15.3329 25.4973 14.0685V5.18151C25.54 3.91715 25.0669 2.68791 24.1819 1.76342C23.2969 0.838925 22.0722 0.294658 20.7764 0.25ZM9.70245 13.589V5.57534L16.3012 9.59932L9.70245 13.589Z" fill="currentColor"/>
    </svg>

    <svg id="hear" width="27" height="28" viewBox="0 0 27 28" fill="none" xmlns="http://www.w3.org/2000/svg">
    <g clip-path="url(#clip0_1308_415)">
    <path d="M13.125 2.6875C10.2242 2.6875 7.4422 3.83984 5.39102 5.89102C3.33984 7.9422 2.1875 10.7242 2.1875 13.625V15.8125H4.375C4.95516 15.8125 5.51156 16.043 5.9218 16.4532C6.33203 16.8634 6.5625 17.4198 6.5625 18V24.5625C6.5625 25.1427 6.33203 25.6991 5.9218 26.1093C5.51156 26.5195 4.95516 26.75 4.375 26.75H2.1875C1.60734 26.75 1.05094 26.5195 0.640704 26.1093C0.230468 25.6991 0 25.1427 0 24.5625V13.625C-2.56836e-08 11.9014 0.339488 10.1947 0.999081 8.60228C1.65867 7.00988 2.62545 5.56299 3.84422 4.34422C5.06299 3.12545 6.50988 2.15867 8.10228 1.49908C9.69468 0.839488 11.4014 0.5 13.125 0.5C14.8486 0.5 16.5553 0.839488 18.1477 1.49908C19.7401 2.15867 21.187 3.12545 22.4058 4.34422C23.6245 5.56299 24.5913 7.00988 25.2509 8.60228C25.9105 10.1947 26.25 11.9014 26.25 13.625V24.5625C26.25 25.1427 26.0195 25.6991 25.6093 26.1093C25.1991 26.5195 24.6427 26.75 24.0625 26.75H21.875C21.2948 26.75 20.7384 26.5195 20.3282 26.1093C19.918 25.6991 19.6875 25.1427 19.6875 24.5625V18C19.6875 17.4198 19.918 16.8634 20.3282 16.4532C20.7384 16.043 21.2948 15.8125 21.875 15.8125H24.0625V13.625C24.0625 10.7242 22.9102 7.9422 20.859 5.89102C18.8078 3.83984 16.0258 2.6875 13.125 2.6875Z" fill="currentColor"/>
    </g>
    <defs>
    <clipPath id="clip0_1308_415">
    <rect width="27" height="27" fill="white" transform="translate(0 0.5)"/>
    </clipPath>
    </defs>
    </svg>

    <svg id="watch" width="27" height="28" viewBox="0 0 27 28" fill="none" xmlns="http://www.w3.org/2000/svg">
    <g clip-path="url(#clip0_1308_226)">
    <path d="M26 14C26 17.3152 24.683 20.4946 22.3388 22.8388C19.9946 25.183 16.8152 26.5 13.5 26.5C10.1848 26.5 7.00537 25.183 4.66117 22.8388C2.31696 20.4946 1 17.3152 1 14C1 10.6848 2.31696 7.50537 4.66117 5.16117C7.00537 2.81696 10.1848 1.5 13.5 1.5C16.8152 1.5 19.9946 2.81696 22.3388 5.16117C24.683 7.50537 26 10.6848 26 14Z" stroke="currentColor" stroke-width="2"/>
    <path d="M11.029 8.93966C11.1835 8.95072 11.332 9.00409 11.4581 9.09392L17.3644 13.3127C17.4738 13.3907 17.5629 13.4938 17.6244 13.6132C17.6859 13.7327 17.718 13.8651 17.718 13.9995C17.718 14.1338 17.6859 14.2663 17.6244 14.3857C17.5629 14.5052 17.4738 14.6082 17.3644 14.6863L11.4581 18.905C11.332 18.9949 11.1835 19.0482 11.029 19.0593C10.8745 19.0704 10.72 19.0387 10.5823 18.9678C10.4446 18.8968 10.3291 18.7894 10.2485 18.6572C10.1678 18.525 10.1251 18.3731 10.125 18.2182V9.78073C10.1251 9.62586 10.1678 9.47399 10.2485 9.34179C10.3291 9.20958 10.4446 9.10212 10.5823 9.03119C10.72 8.96026 10.8745 8.92859 11.029 8.93966Z" fill="currentColor"/>
    </g>
    <defs>
    <clipPath id="clip0_1308_226">
    <rect width="27" height="27" fill="currentColor" transform="translate(0 0.5)"/>
    </clipPath>
    </defs>
    </svg>

    <svg id="read" width="28" height="28" viewBox="0 0 28 28" fill="none" xmlns="http://www.w3.org/2000/svg">
    <g clip-path="url(#clip0_1308_246)">
    <path d="M16.8978 6.33908L16.8956 8.68668C17.7304 8.34446 18.6256 8.17354 19.5278 8.18407C20.5381 8.18494 21.3992 8.28098 22.1596 8.42296L22.1624 6.15775C21.2933 6.00637 20.4128 5.92989 19.5307 5.92915C18.637 5.92734 17.7486 6.06566 16.8978 6.33908ZM16.8904 11.2269L16.8881 13.5745C17.723 13.2323 18.6182 13.0613 19.5204 13.0719C20.5307 13.0727 21.3918 13.1688 22.1522 13.3108L22.155 11.0456C21.2859 10.8942 20.4054 10.8177 19.5232 10.817C18.6295 10.8141 17.7409 10.9524 16.8904 11.2269ZM16.885 16.1137L16.8827 18.4613C17.7176 18.119 18.6128 17.9481 19.515 17.9586C20.5253 17.9595 21.3864 18.0555 22.1468 18.1975L22.1496 15.9323C21.2805 15.7809 20.4 15.7045 19.5179 15.7037C18.6241 15.7008 17.7355 15.8392 16.885 16.1137ZM4.85586 15.908L4.85308 18.1732C5.721 18.0149 6.60176 17.9377 7.48398 17.9425C8.38612 17.935 9.28058 18.1087 10.1144 18.4533L10.1166 16.1057C9.26726 15.8298 8.37989 15.6887 7.48682 15.6875C6.60513 15.6852 5.72487 15.7589 4.85586 15.908ZM4.86868 6.1334L4.8659 8.39862C5.73393 8.24111 6.61461 8.16388 7.4968 8.1679C8.39894 8.16048 9.2934 8.33417 10.1272 8.67869L10.1315 6.33004C9.28134 6.05465 8.39332 5.91392 7.49965 5.91298C6.61795 5.91059 5.73769 5.98434 4.86868 6.1334ZM4.86124 11.0212L4.85846 13.2864C5.72639 13.1282 6.60714 13.0509 7.48936 13.0557C8.39151 13.0483 9.28596 13.222 10.1198 13.5665L10.1241 11.2178C9.2747 10.942 8.38732 10.8009 7.49426 10.7997C6.61185 10.7977 5.73091 10.8718 4.86124 11.0212ZM19.5366 0.715399C17.2908 0.701389 15.1293 1.57003 13.5178 3.13422C11.9107 1.56628 9.75185 0.692533 7.5066 0.70128C3.18677 0.695943 0.0354658 2.76258 0.0354658 2.76258L0.0151867 24.3158C0.0147099 24.9785 0.774187 25.3806 1.30206 24.9808C2.43775 24.1199 4.39976 23.1518 7.47652 23.1557C10.4179 23.1599 12.0452 24.7393 12.8423 25.897C13.1583 26.3564 13.8368 26.3244 14.1573 25.8672C14.9652 24.7143 16.592 23.1675 19.5076 23.1719C22.5879 23.1752 24.5477 24.1506 25.6819 25.0157C26.2101 25.4177 26.9651 25.0201 26.9671 24.3578L27.0018 2.7973C27.0018 2.7973 23.8559 0.722285 19.5366 0.715399ZM12.3664 22.0916C10.9333 21.0946 9.2276 20.5642 7.48194 20.5728C5.34031 20.5692 3.70995 20.9672 2.59463 21.3825L2.61458 4.2912C3.34963 3.9179 4.97847 3.27791 7.50373 3.28164C9.88172 3.28525 11.4499 4.45822 12.3886 5.52339L12.3664 22.0916ZM24.3966 21.4121C23.2812 20.9932 21.6515 20.5915 19.5094 20.5895C17.7639 20.5758 16.0568 21.1014 14.6213 22.0944L14.6435 5.52624C15.5833 4.46267 17.1537 3.29318 19.5332 3.2973C22.0569 3.30052 23.6846 3.94479 24.4186 4.31969L24.3966 21.4121Z" fill="currentColor"/>
    </g>
    <defs>
    <clipPath id="clip0_1308_246">
    <rect width="27" height="27" fill="white" transform="translate(0.5 0.5)"/>
    </clipPath>
    </defs>
    </svg>


</svg>