<?xml version="1.0" encoding="utf-8"?>

<svg viewBox="0 0 163 50" xmlns="http://www.w3.org/2000/svg" xmlns:xlink="http://www.w3.org/1999/xlink"><style>:root>svg{display:none}:root>svg:target{display:block}</style>
    
    <svg id="lk-icon" width="25" height="36" viewBox="0 0 25 36" fill="none" xmlns="http://www.w3.org/2000/svg">
    <path fill-rule="evenodd" clip-rule="evenodd" d="M10.1999 0.799805C11.3044 0.799805 12.2 1.62815 12.2 2.64997V6.81651C12.3662 6.8054 12.533 6.7998 12.7004 6.7998C12.8676 6.80011 13.0342 6.806 13.2 6.81735V2.65017C13.2 1.62835 14.0959 0.8 15.1992 0.8C16.3041 0.8 17.2 1.62835 17.2 2.65017V8.30625C17.4811 8.51735 17.7487 8.7491 18.0003 9.0005C19.4057 10.4063 20.1968 12.3118 20.1999 14.2998C20.1999 15.7832 19.7607 17.2333 18.9362 18.4665C18.1118 19.6999 16.9404 20.6613 15.57 21.2289C14.1997 21.7965 12.6924 21.9451 11.2377 21.6557C9.78297 21.3662 8.44604 20.6519 7.39718 19.6032C6.34833 18.5543 5.63369 17.2179 5.34402 15.763C5.05435 14.3081 5.20397 12.8001 5.77057 11.4297C6.28647 10.1854 7.12643 9.1052 8.19995 8.30003V2.64997C8.19995 1.62815 9.09547 0.799805 10.1999 0.799805ZM17.2398 23.7998C21.0848 23.7998 24.2 26.4862 24.2 29.7997V36.7998H0.199951V29.7997C0.199951 26.4862 3.31662 23.7998 7.16006 23.7998H17.2398Z" fill="currentColor"/>
    </svg>

    <svg id="vk" width="29" height="26" viewBox="0 0 31 18" fill="none" xmlns="http://www.w3.org/2000/svg">
    <path fill-rule="evenodd" clip-rule="evenodd" d="M14.9169 17.8883H16.6202C16.9197 17.8417 17.2019 17.7122 17.4378 17.5132C17.6038 17.2746 17.6933 16.9868 17.6932 16.6914C17.6932 16.6914 17.6932 14.1905 18.7663 13.7975C19.8393 13.4045 21.253 16.227 22.7348 17.3703C23.2932 17.8342 24.0018 18.052 24.7106 17.9776H28.6792C28.6792 17.9776 30.7742 17.8705 29.7693 16.1913C29.0017 14.8228 28.0032 13.6122 26.8226 12.6185C24.3359 10.2069 24.6766 10.5999 27.6913 6.38402C29.4967 3.84736 30.2462 2.29321 30.0248 1.59652C29.8033 0.899831 28.5429 1.02488 28.5429 1.02488H24.0975C23.8915 1.0074 23.685 1.05072 23.5013 1.14992C23.3048 1.27666 23.1501 1.46377 23.0585 1.68584C22.5719 2.94628 22.0028 4.1699 21.3552 5.34792C19.3454 8.92069 18.5619 9.08146 18.2212 8.92069C17.4888 8.4205 17.6762 6.86635 17.6762 5.77665C17.6762 2.3468 18.1531 0.899831 16.7054 0.542555C16.0219 0.392338 15.3257 0.314538 14.6274 0.310327C13.4116 0.173305 12.1821 0.270165 10.9995 0.596147C10.4715 0.864105 10.0968 1.45361 10.3352 1.45361C10.8365 1.5011 11.3006 1.75089 11.6297 2.1503C11.9289 2.80822 12.0804 3.52933 12.0725 4.25823C12.0725 4.25823 12.328 8.31332 11.4423 8.8135C10.8462 9.17078 10.0286 8.47409 8.24022 5.24074C7.64944 4.11828 7.12056 2.96118 6.6562 1.77516C6.56988 1.57521 6.44182 1.39817 6.28148 1.25711C5.98039 1.08152 5.63735 1.00088 5.2936 1.02488H1.32503C1.32503 1.02488 0.694832 1.02488 0.47341 1.34643C0.251988 1.66798 0.47341 2.11457 0.47341 2.11457C0.47341 2.11457 3.8799 10.2605 7.55892 14.3513C8.47945 15.4528 9.60979 16.3397 10.8771 16.9551C12.1444 17.5704 13.5206 17.9005 14.9169 17.924V17.8883Z" fill="currentColor"/>
    </svg>

    <svg id="tg" width="29" height="26" viewBox="0 0 26 24" fill="none" xmlns="http://www.w3.org/2000/svg">
    <path d="M0.326913 10.8485C0.528694 10.4133 1.02201 10.1972 1.42557 10.0291C8.74409 6.98123 16.0731 3.96304 23.4001 0.939899C23.5364 0.883392 23.6766 0.834654 23.8188 0.798631C24.6279 0.593085 25.2358 1.05079 25.2496 1.95067C25.2574 2.46913 25.1552 2.99676 25.0543 3.50957C23.8574 9.58763 22.6513 15.6643 21.4452 21.7409C21.4046 21.9458 21.3502 22.1506 21.2801 22.3456C20.9748 23.1925 20.4238 23.4503 19.6442 23.095C19.4077 22.9869 19.1863 22.828 18.978 22.6641C17.1875 21.2564 15.4009 19.8423 13.5724 18.3978C13.0739 18.9099 12.5819 19.415 12.0899 19.92C11.6057 20.4173 11.1393 20.9378 10.6289 21.4012C10.4926 21.5248 10.3321 21.618 10.1494 21.7148C9.9181 21.837 9.65014 21.6442 9.66652 21.3666C9.72549 20.3897 9.77659 19.523 9.83162 18.6571C9.8873 17.7805 9.92923 16.9018 10.0196 16.0288C10.0452 15.7787 10.1625 15.4806 10.3308 15.3161C13.6216 12.1086 16.9267 8.91802 20.226 5.72112C20.4697 5.4852 20.6918 5.22386 20.9742 4.92084C20.4874 4.66232 20.1841 4.86998 19.886 5.07129C17.0669 6.97135 14.2499 8.87282 11.4321 10.775C9.89975 11.8098 8.36739 12.8446 6.79965 13.9034C4.848 13.2429 2.87539 12.5861 0.913259 11.8967C0.695099 11.8204 0.427148 11.6975 0.322982 11.4573C0.224711 11.2299 0.224711 11.0724 0.328878 10.8477L0.326913 10.8485Z" fill="currentColor"/>
    </svg>

    <svg id="youtube" width="29" height="26" viewBox="0 0 26 19" fill="none" xmlns="http://www.w3.org/2000/svg">
    <path d="M20.7764 0.25H5.22723C3.93149 0.294658 2.70679 0.838925 1.82177 1.76342C0.936759 2.68791 0.463684 3.91715 0.506316 5.18151V13.9829C0.473327 14.616 0.569799 15.2491 0.790112 15.8455C1.01042 16.4418 1.35017 16.9894 1.78956 17.4564C2.22895 17.9233 2.75918 18.3003 3.34938 18.5653C3.93957 18.8303 4.57792 18.9781 5.22723 19H20.7764C22.0722 18.9553 23.2969 18.4111 24.1819 17.4866C25.0669 16.5621 25.54 15.3329 25.4973 14.0685V5.18151C25.54 3.91715 25.0669 2.68791 24.1819 1.76342C23.2969 0.838925 22.0722 0.294658 20.7764 0.25ZM9.70245 13.589V5.57534L16.3012 9.59932L9.70245 13.589Z" fill="currentColor"/>
    </svg>

</svg>