<svg width="26" height="24" viewBox="0 0 26 24" fill="none" xmlns="http://www.w3.org/2000/svg">
<path d="M0.326913 10.8485C0.528694 10.4133 1.02201 10.1972 1.42557 10.0291C8.74409 6.98123 16.0731 3.96304 23.4001 0.939899C23.5364 0.883392 23.6766 0.834654 23.8188 0.798631C24.6279 0.593085 25.2358 1.05079 25.2496 1.95067C25.2574 2.46913 25.1552 2.99676 25.0543 3.50957C23.8574 9.58763 22.6513 15.6643 21.4452 21.7409C21.4046 21.9458 21.3502 22.1506 21.2801 22.3456C20.9748 23.1925 20.4238 23.4503 19.6442 23.095C19.4077 22.9869 19.1863 22.828 18.978 22.6641C17.1875 21.2564 15.4009 19.8423 13.5724 18.3978C13.0739 18.9099 12.5819 19.415 12.0899 19.92C11.6057 20.4173 11.1393 20.9378 10.6289 21.4012C10.4926 21.5248 10.3321 21.618 10.1494 21.7148C9.9181 21.837 9.65014 21.6442 9.66652 21.3666C9.72549 20.3897 9.77659 19.523 9.83162 18.6571C9.8873 17.7805 9.92923 16.9018 10.0196 16.0288C10.0452 15.7787 10.1625 15.4806 10.3308 15.3161C13.6216 12.1086 16.9267 8.91802 20.226 5.72112C20.4697 5.4852 20.6918 5.22386 20.9742 4.92084C20.4874 4.66232 20.1841 4.86998 19.886 5.07129C17.0669 6.97135 14.2499 8.87282 11.4321 10.775C9.89975 11.8098 8.36739 12.8446 6.79965 13.9034C4.848 13.2429 2.87539 12.5861 0.913259 11.8967C0.695099 11.8204 0.427148 11.6975 0.322982 11.4573C0.224711 11.2299 0.224711 11.0724 0.328878 10.8477L0.326913 10.8485Z" fill="white"/>
</svg>
