<svg width="31" height="18" viewBox="0 0 31 18" fill="none" xmlns="http://www.w3.org/2000/svg">
<path fill-rule="evenodd" clip-rule="evenodd" d="M14.9169 17.8883H16.6202C16.9197 17.8417 17.2019 17.7122 17.4378 17.5132C17.6038 17.2746 17.6933 16.9868 17.6932 16.6914C17.6932 16.6914 17.6932 14.1905 18.7663 13.7975C19.8393 13.4045 21.253 16.227 22.7348 17.3703C23.2932 17.8342 24.0018 18.052 24.7106 17.9776H28.6792C28.6792 17.9776 30.7742 17.8705 29.7693 16.1913C29.0017 14.8228 28.0032 13.6122 26.8226 12.6185C24.3359 10.2069 24.6766 10.5999 27.6913 6.38402C29.4967 3.84736 30.2462 2.29321 30.0248 1.59652C29.8033 0.899831 28.5429 1.02488 28.5429 1.02488H24.0975C23.8915 1.0074 23.685 1.05072 23.5013 1.14992C23.3048 1.27666 23.1501 1.46377 23.0585 1.68584C22.5719 2.94628 22.0028 4.1699 21.3552 5.34792C19.3454 8.92069 18.5619 9.08146 18.2212 8.92069C17.4888 8.4205 17.6762 6.86635 17.6762 5.77665C17.6762 2.3468 18.1531 0.899831 16.7054 0.542555C16.0219 0.392338 15.3257 0.314538 14.6274 0.310327C13.4116 0.173305 12.1821 0.270165 10.9995 0.596147C10.4715 0.864105 10.0968 1.45361 10.3352 1.45361C10.8365 1.5011 11.3006 1.75089 11.6297 2.1503C11.9289 2.80822 12.0804 3.52933 12.0725 4.25823C12.0725 4.25823 12.328 8.31332 11.4423 8.8135C10.8462 9.17078 10.0286 8.47409 8.24022 5.24074C7.64944 4.11828 7.12056 2.96118 6.6562 1.77516C6.56988 1.57521 6.44182 1.39817 6.28148 1.25711C5.98039 1.08152 5.63735 1.00088 5.2936 1.02488H1.32503C1.32503 1.02488 0.694832 1.02488 0.47341 1.34643C0.251988 1.66798 0.47341 2.11457 0.47341 2.11457C0.47341 2.11457 3.8799 10.2605 7.55892 14.3513C8.47945 15.4528 9.60979 16.3397 10.8771 16.9551C12.1444 17.5704 13.5206 17.9005 14.9169 17.924V17.8883Z" fill="white"/>
</svg>
