<svg width="243" height="127" viewBox="0 0 243 127" fill="none" xmlns="http://www.w3.org/2000/svg">
<path fill-rule="evenodd" clip-rule="evenodd" d="M243 64V127H6.39618C2.34638 120.643 0 113.096 0 105C0 82.3563 18.3563 64 41 64H243Z" fill="#1AB849"/>
<g clip-path="url(#clip0_342_664)">
<path d="M172.807 4.8901V18.4407H147.516L164.492 1.44132C167.564 -1.63427 172.807 0.540524 172.807 4.8901Z" fill="#3A4096"/>
<path d="M154.571 4.8901V18.4407H129.28L146.256 1.44132C149.328 -1.63427 154.571 0.540524 154.571 4.8901Z" fill="#3A4096"/>
<path d="M97.7563 127H212.363L200.244 47.009H109.875L97.7563 127Z" fill="#646BAF"/>
<path d="M128.779 11.6333H180.363C195.886 11.6333 208.469 24.2336 208.469 39.7769V39.7898C208.469 55.333 195.886 67.9333 180.363 67.9333H128.779C113.257 67.9333 100.674 55.333 100.674 39.7898V39.7769C100.674 24.2336 113.257 11.6333 128.779 11.6333Z" fill="#646BAF"/>
<path d="M133.418 33.484V33.4583H155.188C161.125 33.4583 165.932 38.2711 165.932 44.2164C165.932 50.1617 161.125 54.9745 155.188 54.9745C149.251 54.9745 144.444 50.1617 144.444 44.2164C144.444 50.1617 139.638 54.9745 133.701 54.9745C127.764 54.9745 122.957 50.1617 122.957 44.2164C122.957 38.2711 127.622 33.6255 133.431 33.484H133.418Z" fill="#FFFFFD"/>
<path d="M32.2157 116.461H117.162C120.072 116.461 122.431 118.823 122.431 121.737C122.431 124.651 120.072 127.013 117.162 127.013H32.2157C29.3058 127.013 26.9468 124.651 26.9468 121.737C26.9468 118.823 29.3058 116.461 32.2157 116.461Z" fill="#3A4096"/>
<path d="M32.2157 116.461H103.604C106.508 116.461 108.41 114.106 107.857 111.185L99.0158 65.3853C98.4504 62.477 95.636 60.1091 92.7316 60.1091H21.3437C18.4394 60.1091 16.5374 62.4641 17.09 65.3853L25.9316 111.185C26.497 114.093 29.3114 116.461 32.2157 116.461Z" fill="#0B2E59"/>
<path d="M114.129 116.461H164.749C167.659 116.461 170.018 118.823 170.018 121.737C170.018 124.651 167.659 127.013 164.749 127.013H114.129C111.219 127.013 108.86 124.651 108.86 121.737C108.86 118.823 111.219 116.461 114.129 116.461Z" fill="#0B2E59"/>
<path d="M140.178 88.8447V82.256C140.178 78.2049 143.455 74.9209 147.497 74.9209C151.539 74.9209 154.815 78.2049 154.815 82.256V88.8447C154.815 92.8958 151.539 96.1798 147.497 96.1798C143.455 96.1798 140.178 92.8958 140.178 88.8447Z" fill="#FFFFFD"/>
<path d="M195.836 106.089H216.552C222.322 106.089 227 110.77 227 116.544C227 122.319 222.322 127 216.552 127H195.836C190.066 127 185.388 122.319 185.388 116.544C185.388 110.77 190.066 106.089 195.836 106.089Z" fill="#3A4096"/>
<path d="M118.807 100.787H124.474C128.818 100.787 132.339 104.313 132.339 108.662V108.675C132.339 113.025 128.818 116.551 124.474 116.551H118.807C114.463 116.551 110.942 113.025 110.942 108.675V108.662C110.942 104.313 114.463 100.787 118.807 100.787Z" fill="#FFFFFD"/>
<path d="M57.8794 93.5547H69.0984C72.0028 93.5547 73.9047 91.1997 73.3521 88.2786C72.7867 85.3703 69.9723 83.0024 67.068 83.0024H55.8489C52.9446 83.0024 51.0426 85.3574 51.5952 88.2786C52.1607 91.1869 54.975 93.5547 57.8794 93.5547Z" fill="#646BAF"/>
<path d="M145.395 41.0121L150.767 35.0539C151.59 34.1402 150.998 32.6089 149.816 32.6089H139.073C137.903 32.6089 137.299 34.1402 138.122 35.0539L143.493 41.0121C144.007 41.5912 144.868 41.5912 145.395 41.0121Z" fill="#EB9196"/>
<path d="M154.751 29.1217C152.934 29.1217 151.461 27.6467 151.461 25.8273C151.461 24.0079 152.934 22.533 154.751 22.533C156.568 22.533 158.041 24.0079 158.041 25.8273C158.041 27.6467 156.568 29.1217 154.751 29.1217Z" fill="#0B2E59"/>
<path d="M144.444 29.1217C142.628 29.1217 141.155 27.6467 141.155 25.8273C141.155 24.0079 142.628 22.533 144.444 22.533C146.261 22.533 147.734 24.0079 147.734 25.8273C147.734 27.6467 146.261 29.1217 144.444 29.1217Z" fill="#0B2E59"/>
</g>
<defs>
<clipPath id="clip0_342_664">
<rect width="210" height="127" fill="white" transform="matrix(-1 0 0 1 227 0)"/>
</clipPath>
</defs>
</svg>
