<svg width="26" height="19" viewBox="0 0 26 19" fill="none" xmlns="http://www.w3.org/2000/svg">
<path d="M20.7764 0.25H5.22723C3.93149 0.294658 2.70679 0.838925 1.82177 1.76342C0.936759 2.68791 0.463684 3.91715 0.506316 5.18151V13.9829C0.473327 14.616 0.569799 15.2491 0.790112 15.8455C1.01042 16.4418 1.35017 16.9894 1.78956 17.4564C2.22895 17.9233 2.75918 18.3003 3.34938 18.5653C3.93957 18.8303 4.57792 18.9781 5.22723 19H20.7764C22.0722 18.9553 23.2969 18.4111 24.1819 17.4866C25.0669 16.5621 25.54 15.3329 25.4973 14.0685V5.18151C25.54 3.91715 25.0669 2.68791 24.1819 1.76342C23.2969 0.838925 22.0722 0.294658 20.7764 0.25ZM9.70245 13.589V5.57534L16.3012 9.59932L9.70245 13.589Z" fill="white"/>
</svg>
